<mxfile host="app.diagrams.net" modified="2024-06-14T12:17:09.261Z" agent="Mozilla/5.0 (Windows NT 10.0; Win64; x64) AppleWebKit/537.36 (KHTML, like Gecko) Chrome/125.0.0.0 Safari/537.36 Edg/125.0.0.0" etag="rQzHag0eNmXWu6-5d8c8" version="24.5.4" type="device">
  <diagram name="Page-1" id="3At6k541JNPY3x4BBfMX">
    <mxGraphModel dx="1386" dy="785" grid="1" gridSize="10" guides="1" tooltips="1" connect="1" arrows="1" fold="1" page="1" pageScale="1" pageWidth="827" pageHeight="1169" math="0" shadow="0">
      <root>
        <mxCell id="0" />
        <mxCell id="1" parent="0" />
        <mxCell id="ySiypsw1dhdZ637rDVe7-1" value="Carte" style="swimlane;fontStyle=0;childLayout=stackLayout;horizontal=1;startSize=30;horizontalStack=0;resizeParent=1;resizeParentMax=0;resizeLast=0;collapsible=1;marginBottom=0;whiteSpace=wrap;html=1;" vertex="1" parent="1">
          <mxGeometry x="270" y="325" width="140" height="120" as="geometry">
            <mxRectangle x="210" y="370" width="60" height="30" as="alternateBounds" />
          </mxGeometry>
        </mxCell>
        <mxCell id="ySiypsw1dhdZ637rDVe7-2" value="&lt;b&gt;&lt;u&gt;id&lt;/u&gt;&lt;/b&gt;" style="text;strokeColor=none;fillColor=none;align=left;verticalAlign=middle;spacingLeft=4;spacingRight=4;overflow=hidden;points=[[0,0.5],[1,0.5]];portConstraint=eastwest;rotatable=0;whiteSpace=wrap;html=1;" vertex="1" parent="ySiypsw1dhdZ637rDVe7-1">
          <mxGeometry y="30" width="140" height="30" as="geometry" />
        </mxCell>
        <mxCell id="ySiypsw1dhdZ637rDVe7-3" value="couleur: ENUM" style="text;strokeColor=none;fillColor=none;align=left;verticalAlign=middle;spacingLeft=4;spacingRight=4;overflow=hidden;points=[[0,0.5],[1,0.5]];portConstraint=eastwest;rotatable=0;whiteSpace=wrap;html=1;" vertex="1" parent="ySiypsw1dhdZ637rDVe7-1">
          <mxGeometry y="60" width="140" height="30" as="geometry" />
        </mxCell>
        <mxCell id="ySiypsw1dhdZ637rDVe7-4" value="revele: BOOL" style="text;strokeColor=none;fillColor=none;align=left;verticalAlign=middle;spacingLeft=4;spacingRight=4;overflow=hidden;points=[[0,0.5],[1,0.5]];portConstraint=eastwest;rotatable=0;whiteSpace=wrap;html=1;" vertex="1" parent="ySiypsw1dhdZ637rDVe7-1">
          <mxGeometry y="90" width="140" height="30" as="geometry" />
        </mxCell>
        <mxCell id="ySiypsw1dhdZ637rDVe7-5" value="Joueur" style="swimlane;fontStyle=0;childLayout=stackLayout;horizontal=1;startSize=30;horizontalStack=0;resizeParent=1;resizeParentMax=0;resizeLast=0;collapsible=1;marginBottom=0;whiteSpace=wrap;html=1;" vertex="1" parent="1">
          <mxGeometry x="518" y="136" width="140" height="120" as="geometry" />
        </mxCell>
        <mxCell id="ySiypsw1dhdZ637rDVe7-6" value="&lt;b&gt;&lt;u&gt;id&lt;/u&gt;&lt;/b&gt;" style="text;strokeColor=none;fillColor=none;align=left;verticalAlign=middle;spacingLeft=4;spacingRight=4;overflow=hidden;points=[[0,0.5],[1,0.5]];portConstraint=eastwest;rotatable=0;whiteSpace=wrap;html=1;" vertex="1" parent="ySiypsw1dhdZ637rDVe7-5">
          <mxGeometry y="30" width="140" height="30" as="geometry" />
        </mxCell>
        <mxCell id="ySiypsw1dhdZ637rDVe7-7" value="nom: VARCHAR(10)" style="text;strokeColor=none;fillColor=none;align=left;verticalAlign=middle;spacingLeft=4;spacingRight=4;overflow=hidden;points=[[0,0.5],[1,0.5]];portConstraint=eastwest;rotatable=0;whiteSpace=wrap;html=1;" vertex="1" parent="ySiypsw1dhdZ637rDVe7-5">
          <mxGeometry y="60" width="140" height="30" as="geometry" />
        </mxCell>
        <mxCell id="ySiypsw1dhdZ637rDVe7-8" value="role: ENUM" style="text;strokeColor=none;fillColor=none;align=left;verticalAlign=middle;spacingLeft=4;spacingRight=4;overflow=hidden;points=[[0,0.5],[1,0.5]];portConstraint=eastwest;rotatable=0;whiteSpace=wrap;html=1;" vertex="1" parent="ySiypsw1dhdZ637rDVe7-5">
          <mxGeometry y="90" width="140" height="30" as="geometry" />
        </mxCell>
        <mxCell id="ySiypsw1dhdZ637rDVe7-9" value="Dictionnaire" style="swimlane;fontStyle=0;childLayout=stackLayout;horizontal=1;startSize=30;horizontalStack=0;resizeParent=1;resizeParentMax=0;resizeLast=0;collapsible=1;marginBottom=0;whiteSpace=wrap;html=1;" vertex="1" parent="1">
          <mxGeometry x="676" y="311" width="140" height="90" as="geometry" />
        </mxCell>
        <mxCell id="ySiypsw1dhdZ637rDVe7-10" value="&lt;b&gt;&lt;u&gt;id&lt;/u&gt;&lt;/b&gt;" style="text;strokeColor=none;fillColor=none;align=left;verticalAlign=middle;spacingLeft=4;spacingRight=4;overflow=hidden;points=[[0,0.5],[1,0.5]];portConstraint=eastwest;rotatable=0;whiteSpace=wrap;html=1;" vertex="1" parent="ySiypsw1dhdZ637rDVe7-9">
          <mxGeometry y="30" width="140" height="30" as="geometry" />
        </mxCell>
        <mxCell id="ySiypsw1dhdZ637rDVe7-11" value="mot: VARCHAR(15)" style="text;strokeColor=none;fillColor=none;align=left;verticalAlign=middle;spacingLeft=4;spacingRight=4;overflow=hidden;points=[[0,0.5],[1,0.5]];portConstraint=eastwest;rotatable=0;whiteSpace=wrap;html=1;" vertex="1" parent="ySiypsw1dhdZ637rDVe7-9">
          <mxGeometry y="60" width="140" height="30" as="geometry" />
        </mxCell>
        <mxCell id="ySiypsw1dhdZ637rDVe7-12" value="Partie" style="swimlane;fontStyle=0;childLayout=stackLayout;horizontal=1;startSize=30;horizontalStack=0;resizeParent=1;resizeParentMax=0;resizeLast=0;collapsible=1;marginBottom=0;whiteSpace=wrap;html=1;" vertex="1" parent="1">
          <mxGeometry x="20" y="150" width="170" height="240" as="geometry" />
        </mxCell>
        <mxCell id="ySiypsw1dhdZ637rDVe7-13" value="&lt;b&gt;&lt;u&gt;id&lt;/u&gt;&lt;/b&gt;" style="text;strokeColor=none;fillColor=none;align=left;verticalAlign=middle;spacingLeft=4;spacingRight=4;overflow=hidden;points=[[0,0.5],[1,0.5]];portConstraint=eastwest;rotatable=0;whiteSpace=wrap;html=1;" vertex="1" parent="ySiypsw1dhdZ637rDVe7-12">
          <mxGeometry y="30" width="170" height="30" as="geometry" />
        </mxCell>
        <mxCell id="ySiypsw1dhdZ637rDVe7-14" value="code: CHAR(5)" style="text;strokeColor=none;fillColor=none;align=left;verticalAlign=middle;spacingLeft=4;spacingRight=4;overflow=hidden;points=[[0,0.5],[1,0.5]];portConstraint=eastwest;rotatable=0;whiteSpace=wrap;html=1;" vertex="1" parent="ySiypsw1dhdZ637rDVe7-12">
          <mxGeometry y="60" width="170" height="30" as="geometry" />
        </mxCell>
        <mxCell id="ySiypsw1dhdZ637rDVe7-15" value="score: INT" style="text;strokeColor=none;fillColor=none;align=left;verticalAlign=middle;spacingLeft=4;spacingRight=4;overflow=hidden;points=[[0,0.5],[1,0.5]];portConstraint=eastwest;rotatable=0;whiteSpace=wrap;html=1;" vertex="1" parent="ySiypsw1dhdZ637rDVe7-12">
          <mxGeometry y="90" width="170" height="30" as="geometry" />
        </mxCell>
        <mxCell id="ySiypsw1dhdZ637rDVe7-16" value="indiceCourant: VARCHAR(15)" style="text;strokeColor=none;fillColor=none;align=left;verticalAlign=middle;spacingLeft=4;spacingRight=4;overflow=hidden;points=[[0,0.5],[1,0.5]];portConstraint=eastwest;rotatable=0;whiteSpace=wrap;html=1;" vertex="1" parent="ySiypsw1dhdZ637rDVe7-12">
          <mxGeometry y="120" width="170" height="30" as="geometry" />
        </mxCell>
        <mxCell id="ySiypsw1dhdZ637rDVe7-17" value="doitDeviner: INT" style="text;strokeColor=none;fillColor=none;align=left;verticalAlign=middle;spacingLeft=4;spacingRight=4;overflow=hidden;points=[[0,0.5],[1,0.5]];portConstraint=eastwest;rotatable=0;whiteSpace=wrap;html=1;" vertex="1" parent="ySiypsw1dhdZ637rDVe7-12">
          <mxGeometry y="150" width="170" height="30" as="geometry" />
        </mxCell>
        <mxCell id="ySiypsw1dhdZ637rDVe7-36" value="dejaTrouvee: INT" style="text;strokeColor=none;fillColor=none;align=left;verticalAlign=middle;spacingLeft=4;spacingRight=4;overflow=hidden;points=[[0,0.5],[1,0.5]];portConstraint=eastwest;rotatable=0;whiteSpace=wrap;html=1;" vertex="1" parent="ySiypsw1dhdZ637rDVe7-12">
          <mxGeometry y="180" width="170" height="30" as="geometry" />
        </mxCell>
        <mxCell id="ySiypsw1dhdZ637rDVe7-18" value="etat: ENUM" style="text;strokeColor=none;fillColor=none;align=left;verticalAlign=middle;spacingLeft=4;spacingRight=4;overflow=hidden;points=[[0,0.5],[1,0.5]];portConstraint=eastwest;rotatable=0;whiteSpace=wrap;html=1;" vertex="1" parent="ySiypsw1dhdZ637rDVe7-12">
          <mxGeometry y="210" width="170" height="30" as="geometry" />
        </mxCell>
        <mxCell id="ySiypsw1dhdZ637rDVe7-19" style="edgeStyle=orthogonalEdgeStyle;rounded=0;orthogonalLoop=1;jettySize=auto;html=1;entryX=0;entryY=0.5;entryDx=0;entryDy=0;endArrow=none;endFill=0;" edge="1" parent="1" source="ySiypsw1dhdZ637rDVe7-12" target="ySiypsw1dhdZ637rDVe7-31">
          <mxGeometry relative="1" as="geometry">
            <mxPoint x="277.20000000000005" y="229.66000000000008" as="targetPoint" />
          </mxGeometry>
        </mxCell>
        <mxCell id="ySiypsw1dhdZ637rDVe7-20" value="0,N" style="edgeLabel;html=1;align=center;verticalAlign=middle;resizable=0;points=[];" vertex="1" connectable="0" parent="ySiypsw1dhdZ637rDVe7-19">
          <mxGeometry x="0.0347" y="2" relative="1" as="geometry">
            <mxPoint x="12" y="-37" as="offset" />
          </mxGeometry>
        </mxCell>
        <mxCell id="ySiypsw1dhdZ637rDVe7-21" value="&lt;b&gt;Relations&lt;/b&gt;" style="text;html=1;align=left;verticalAlign=middle;whiteSpace=wrap;rounded=0;" vertex="1" parent="1">
          <mxGeometry x="60" y="512" width="80" height="28" as="geometry" />
        </mxCell>
        <mxCell id="ySiypsw1dhdZ637rDVe7-22" value="Partie(&lt;u style=&quot;font-weight: bold;&quot;&gt;id,&lt;/u&gt;&amp;nbsp;code, score,&amp;nbsp;indiceCourant, doitDeviner, dejaTrouvee, etat)&lt;div&gt;&lt;div&gt;Joueur(&lt;b style=&quot;&quot;&gt;&lt;u&gt;id&lt;/u&gt;&lt;/b&gt;, &lt;i&gt;#idPartie&lt;/i&gt;, nom, role)&lt;/div&gt;&lt;div&gt;Carte(&lt;b&gt;&lt;u&gt;id&lt;/u&gt;&lt;/b&gt;, &lt;i&gt;#idDictionnaire&lt;/i&gt;, &lt;i&gt;#idPartie&lt;/i&gt;, couleur, revele)&lt;/div&gt;&lt;div&gt;Dictionnaire(&lt;b&gt;&lt;u&gt;id&lt;/u&gt;&lt;/b&gt;, mot)&lt;/div&gt;&lt;/div&gt;" style="text;html=1;align=left;verticalAlign=middle;whiteSpace=wrap;rounded=0;" vertex="1" parent="1">
          <mxGeometry x="60" y="540" width="450" height="115" as="geometry" />
        </mxCell>
        <mxCell id="ySiypsw1dhdZ637rDVe7-23" style="edgeStyle=orthogonalEdgeStyle;rounded=0;orthogonalLoop=1;jettySize=auto;html=1;exitX=0;exitY=0.5;exitDx=0;exitDy=0;endArrow=none;endFill=0;entryX=1;entryY=0.5;entryDx=0;entryDy=0;" edge="1" parent="1" source="ySiypsw1dhdZ637rDVe7-1" target="ySiypsw1dhdZ637rDVe7-32">
          <mxGeometry relative="1" as="geometry">
            <mxPoint x="190" y="350" as="targetPoint" />
          </mxGeometry>
        </mxCell>
        <mxCell id="ySiypsw1dhdZ637rDVe7-24" value="1,1" style="edgeLabel;html=1;align=center;verticalAlign=middle;resizable=0;points=[];" vertex="1" connectable="0" parent="ySiypsw1dhdZ637rDVe7-23">
          <mxGeometry x="-0.0321" y="-3" relative="1" as="geometry">
            <mxPoint x="-7" y="-20" as="offset" />
          </mxGeometry>
        </mxCell>
        <mxCell id="ySiypsw1dhdZ637rDVe7-25" style="edgeStyle=orthogonalEdgeStyle;rounded=0;orthogonalLoop=1;jettySize=auto;html=1;exitX=1;exitY=0.5;exitDx=0;exitDy=0;entryX=-0.017;entryY=0.425;entryDx=0;entryDy=0;endArrow=none;endFill=0;entryPerimeter=0;" edge="1" parent="1" source="ySiypsw1dhdZ637rDVe7-2" target="ySiypsw1dhdZ637rDVe7-33">
          <mxGeometry relative="1" as="geometry">
            <mxPoint x="480" y="350" as="targetPoint" />
          </mxGeometry>
        </mxCell>
        <mxCell id="ySiypsw1dhdZ637rDVe7-26" value="1,1" style="edgeLabel;html=1;align=center;verticalAlign=middle;resizable=0;points=[];" vertex="1" connectable="0" parent="ySiypsw1dhdZ637rDVe7-25">
          <mxGeometry x="-0.2885" y="-1" relative="1" as="geometry">
            <mxPoint x="9" y="-11" as="offset" />
          </mxGeometry>
        </mxCell>
        <mxCell id="ySiypsw1dhdZ637rDVe7-27" style="edgeStyle=orthogonalEdgeStyle;rounded=0;orthogonalLoop=1;jettySize=auto;html=1;entryX=-0.013;entryY=0.182;entryDx=0;entryDy=0;entryPerimeter=0;endArrow=none;endFill=0;exitX=1;exitY=0.5;exitDx=0;exitDy=0;" edge="1" parent="1" source="ySiypsw1dhdZ637rDVe7-33" target="ySiypsw1dhdZ637rDVe7-11">
          <mxGeometry relative="1" as="geometry">
            <mxPoint x="620" y="350" as="sourcePoint" />
          </mxGeometry>
        </mxCell>
        <mxCell id="ySiypsw1dhdZ637rDVe7-28" value="0,N" style="edgeLabel;html=1;align=center;verticalAlign=middle;resizable=0;points=[];" vertex="1" connectable="0" parent="ySiypsw1dhdZ637rDVe7-27">
          <mxGeometry x="-0.1031" y="2" relative="1" as="geometry">
            <mxPoint x="-7" y="16" as="offset" />
          </mxGeometry>
        </mxCell>
        <mxCell id="ySiypsw1dhdZ637rDVe7-29" style="edgeStyle=orthogonalEdgeStyle;rounded=0;orthogonalLoop=1;jettySize=auto;html=1;entryX=0.007;entryY=0.133;entryDx=0;entryDy=0;entryPerimeter=0;startArrow=none;startFill=0;strokeColor=default;endArrow=none;endFill=0;exitX=1;exitY=0.5;exitDx=0;exitDy=0;" edge="1" parent="1" source="ySiypsw1dhdZ637rDVe7-31">
          <mxGeometry relative="1" as="geometry">
            <mxPoint x="420" y="229.99" as="sourcePoint" />
            <mxPoint x="518.98" y="229.99" as="targetPoint" />
          </mxGeometry>
        </mxCell>
        <mxCell id="ySiypsw1dhdZ637rDVe7-30" value="1, 1" style="edgeLabel;html=1;align=center;verticalAlign=middle;resizable=0;points=[];" vertex="1" connectable="0" parent="ySiypsw1dhdZ637rDVe7-29">
          <mxGeometry x="0.1113" y="-1" relative="1" as="geometry">
            <mxPoint y="-20" as="offset" />
          </mxGeometry>
        </mxCell>
        <mxCell id="ySiypsw1dhdZ637rDVe7-31" value="Joue" style="ellipse;whiteSpace=wrap;html=1;" vertex="1" parent="1">
          <mxGeometry x="290" y="190" width="120" height="80" as="geometry" />
        </mxCell>
        <mxCell id="ySiypsw1dhdZ637rDVe7-32" value="Comporte" style="ellipse;whiteSpace=wrap;html=1;" vertex="1" parent="1">
          <mxGeometry x="60" y="420" width="120" height="80" as="geometry" />
        </mxCell>
        <mxCell id="ySiypsw1dhdZ637rDVe7-33" value="Est_dans" style="ellipse;whiteSpace=wrap;html=1;" vertex="1" parent="1">
          <mxGeometry x="497" y="336" width="120" height="80" as="geometry" />
        </mxCell>
        <mxCell id="ySiypsw1dhdZ637rDVe7-34" style="edgeStyle=orthogonalEdgeStyle;rounded=0;orthogonalLoop=1;jettySize=auto;html=1;exitX=0.5;exitY=0;exitDx=0;exitDy=0;endArrow=none;endFill=0;entryX=0.506;entryY=0.967;entryDx=0;entryDy=0;entryPerimeter=0;" edge="1" parent="1" source="ySiypsw1dhdZ637rDVe7-32" target="ySiypsw1dhdZ637rDVe7-18">
          <mxGeometry relative="1" as="geometry">
            <mxPoint x="100" y="380" as="targetPoint" />
          </mxGeometry>
        </mxCell>
        <mxCell id="ySiypsw1dhdZ637rDVe7-35" value="1,N" style="edgeLabel;html=1;align=center;verticalAlign=middle;resizable=0;points=[];" vertex="1" connectable="0" parent="ySiypsw1dhdZ637rDVe7-34">
          <mxGeometry x="0.2837" y="-5" relative="1" as="geometry">
            <mxPoint x="9" y="-4" as="offset" />
          </mxGeometry>
        </mxCell>
      </root>
    </mxGraphModel>
  </diagram>
</mxfile>
